<?xml version="1.0" encoding="UTF-8" standalone="no"?>
<svg
   xmlns:dc="http://purl.org/dc/elements/1.1/"
   xmlns:cc="http://creativecommons.org/ns#"
   xmlns:rdf="http://www.w3.org/1999/02/22-rdf-syntax-ns#"
   xmlns:svg="http://www.w3.org/2000/svg"
   xmlns="http://www.w3.org/2000/svg"
   id="svg8"
   version="1.1"
   viewBox="0 0 133.18224 157.91254"
   height="157.91254mm"
   width="133.18224mm">
  <defs
     id="defs2" />
  <metadata
     id="metadata5">
    <rdf:RDF>
      <cc:Work
         rdf:about="">
        <dc:format>image/svg+xml</dc:format>
        <dc:type
           rdf:resource="http://purl.org/dc/dcmitype/StillImage" />
        <dc:title></dc:title>
      </cc:Work>
    </rdf:RDF>
  </metadata>
  <g
     transform="translate(-33.408718,-118.04358)"
     id="layer1">
    <path
       id="path856"
       d="m 47.952111,128.04358 c -0.713824,0 -1.353865,0.1254 -1.919779,0.37621 -0.559486,0.24436 -1.035021,0.60466 -1.427303,1.08055 -0.385853,0.47588 -0.682014,1.06092 -0.887801,1.75545 -0.205788,0.6881 -0.30851,1.47909 -0.30851,2.37298 v 3.28921 c 0,0.89389 0.102722,1.68826 0.30851,2.3828 0.212217,0.6881 0.514641,1.27027 0.90692,1.74614 0.392282,0.46946 0.868336,0.82637 1.427821,1.07074 0.565915,0.24436 1.205439,0.36638 1.919261,0.36638 0.720257,0 1.360297,-0.12202 1.91978,-0.36638 0.559485,-0.24437 1.03215,-0.60128 1.418002,-1.07074 0.38585,-0.47587 0.681495,-1.05804 0.887283,-1.74614 0.205788,-0.69454 0.309025,-1.48891 0.309025,-2.3828 v -3.28921 c 0,-0.89389 -0.103237,-1.68488 -0.309025,-2.37298 -0.205788,-0.69453 -0.50482,-1.27957 -0.897101,-1.75545 -0.38585,-0.47589 -0.861389,-0.83619 -1.427303,-1.08055 -0.559485,-0.25081 -1.199526,-0.37621 -1.91978,-0.37621 z m 23.691059,0 c -0.713822,0 -1.353347,0.1254 -1.919261,0.37621 -0.559485,0.24436 -1.03554,0.60466 -1.427821,1.08055 -0.38585,0.47588 -0.681496,1.06092 -0.887283,1.75545 -0.205788,0.6881 -0.309026,1.47909 -0.309026,2.37298 v 3.28921 c 0,0.89389 0.103238,1.68826 0.309026,2.3828 0.212217,0.6881 0.514122,1.27027 0.906404,1.74614 0.392282,0.46946 0.868336,0.82637 1.427819,1.07074 0.565914,0.24436 1.205957,0.36638 1.919779,0.36638 0.720254,0 1.359781,-0.12202 1.919264,-0.36638 0.559482,-0.24437 1.03215,-0.60128 1.418,-1.07074 0.385852,-0.47587 0.682016,-1.05804 0.887801,-1.74614 0.205788,-0.69454 0.30851,-1.48891 0.30851,-2.3828 v -3.28921 c 0,-0.89389 -0.102722,-1.68488 -0.30851,-2.37298 -0.205785,-0.69453 -0.504819,-1.27957 -0.897101,-1.75545 -0.385853,-0.47589 -0.861907,-0.83619 -1.427822,-1.08055 -0.559482,-0.25081 -1.199522,-0.37621 -1.919779,-0.37621 z m 23.691573,0 c -0.713823,0 -1.353861,0.1254 -1.919776,0.37621 -0.55948,0.24436 -1.035531,0.60466 -1.427818,1.08055 -0.385847,0.47588 -0.681498,1.06092 -0.887286,1.75545 -0.205785,0.6881 -0.308507,1.47909 -0.308507,2.37298 v 3.28921 c 0,0.89389 0.102722,1.68826 0.308507,2.3828 0.212215,0.6881 0.514636,1.27027 0.906923,1.74614 0.392279,0.46946 0.867823,0.82637 1.427303,1.07074 0.565912,0.24436 1.205952,0.36638 1.919784,0.36638 0.72025,0 1.36029,-0.12202 1.91978,-0.36638 0.55948,-0.24437 1.03214,-0.60128 1.418,-1.07074 0.38585,-0.47587 0.68149,-1.05804 0.88728,-1.74614 0.20579,-0.69454 0.30851,-1.48891 0.30851,-2.3828 v -3.28921 c 0,-0.89389 -0.10272,-1.68488 -0.30851,-2.37298 -0.20579,-0.69453 -0.50482,-1.27957 -0.8971,-1.75545 -0.38585,-0.47589 -0.86191,-0.83619 -1.42782,-1.08055 -0.55949,-0.25081 -1.19901,-0.37621 -1.91927,-0.37621 z m 23.691067,0 c -0.71382,0 -1.35387,0.1254 -1.91978,0.37621 -0.55949,0.24436 -1.03503,0.60466 -1.42731,1.08055 -0.38585,0.47588 -0.68201,1.06092 -0.8878,1.75545 -0.20579,0.6881 -0.30851,1.47909 -0.30851,2.37298 v 3.28921 c 0,0.89389 0.10272,1.68826 0.30851,2.3828 0.21222,0.6881 0.51464,1.27027 0.90692,1.74614 0.39228,0.46946 0.86834,0.82637 1.42782,1.07074 0.56592,0.24436 1.20544,0.36638 1.91926,0.36638 0.72026,0 1.3603,-0.12202 1.91978,-0.36638 0.55949,-0.24437 1.03216,-0.60128 1.41801,-1.07074 0.38585,-0.47587 0.68149,-1.05804 0.88728,-1.74614 0.20579,-0.69454 0.30902,-1.48891 0.30902,-2.3828 v -3.28921 c 0,-0.89389 -0.10323,-1.68488 -0.30902,-2.37298 -0.20579,-0.69453 -0.50482,-1.27957 -0.8971,-1.75545 -0.38585,-0.47589 -0.86139,-0.83619 -1.42731,-1.08055 -0.55948,-0.25081 -1.19952,-0.37621 -1.91977,-0.37621 z m -57.848668,0.20257 -5.314921,2.04484 v 1.63039 l 3.67523,-1.39888 v 11.76879 h 1.784387 v -14.04514 z m 23.691062,0 -5.314921,2.04484 v 1.63039 l 3.675226,-1.39888 v 11.76879 h 1.784387 v -14.04514 z m 23.691576,0 -5.31544,2.04484 v 1.63039 l 3.67523,-1.39888 v 11.76879 h 1.7849 v -14.04514 z m 23.69106,0 -5.31492,2.04484 v 1.63039 l 3.67522,-1.39888 v 11.76879 h 1.78439 v -14.04514 z m -84.298729,1.26349 c 0.829577,0 1.462844,0.24455 1.900142,0.73329 0.443728,0.48231 0.717212,1.18988 0.820106,2.12235 l -5.469435,4.19613 v -3.32796 c 0,-1.21543 0.221866,-2.1386 0.665594,-2.76883 0.450159,-0.63665 1.14469,-0.95498 2.083593,-0.95498 z m 23.691059,0 c 0.82958,0 1.463363,0.24455 1.900661,0.73329 0.443727,0.48231 0.716695,1.18988 0.819586,2.12235 l -5.469432,4.19613 v -3.32796 c 0,-1.21543 0.221864,-2.1386 0.665591,-2.76883 0.45016,-0.63665 1.144691,-0.95498 2.083594,-0.95498 z m 23.691573,0 c 0.82958,0 1.46285,0.24455 1.90015,0.73329 0.44373,0.48231 0.71721,1.18988 0.8201,2.12235 l -5.469431,4.19613 v -3.32796 c 0,-1.21543 0.221867,-2.1386 0.665591,-2.76883 0.45016,-0.63665 1.144688,-0.95498 2.08359,-0.95498 z m 23.691067,0 c 0.82958,0 1.46284,0.24455 1.90014,0.73329 0.44372,0.48231 0.71721,1.18988 0.8201,2.12235 l -5.46943,4.19613 v -3.32796 c 0,-1.21543 0.22186,-2.1386 0.66559,-2.76883 0.45016,-0.63665 1.14469,-0.95498 2.0836,-0.95498 z m -68.314695,4.56303 v 3.22151 c 0,1.209 -0.221864,2.13504 -0.665591,2.77813 -0.437298,0.64308 -1.128959,0.96479 -2.074294,0.96479 -0.803854,0 -1.430861,-0.23777 -1.881021,-0.71365 -0.450159,-0.47588 -0.7299,-1.16754 -0.839226,-2.07429 z m 23.691061,0 v 3.22151 c 0,1.209 -0.221864,2.13504 -0.665594,2.77813 -0.437298,0.64308 -1.12844,0.96479 -2.073775,0.96479 -0.803854,0 -1.430861,-0.23777 -1.881021,-0.71365 -0.450159,-0.47588 -0.7299,-1.16754 -0.839226,-2.07429 z m 23.691057,0 v 3.22151 c 0,1.209 -0.22186,2.13504 -0.66559,2.77813 -0.4373,0.64308 -1.12844,0.96479 -2.07377,0.96479 -0.803859,0 -1.430866,-0.23777 -1.881028,-0.71365 -0.450159,-0.47588 -0.729898,-1.16754 -0.839224,-2.07429 z m 23.691577,0 v 3.22151 c 0,1.209 -0.22186,2.13504 -0.66559,2.77813 -0.4373,0.64308 -1.12896,0.96479 -2.0743,0.96479 -0.80386,0 -1.43086,-0.23777 -1.88102,-0.71365 -0.45016,-0.47588 -0.7299,-1.16754 -0.83922,-2.07429 z M 47.952111,152.7382 c -0.713824,0 -1.353865,0.1254 -1.919779,0.3762 -0.559486,0.24438 -1.035021,0.60416 -1.427303,1.08004 -0.385853,0.47589 -0.682014,1.06144 -0.887801,1.75597 -0.205788,0.6881 -0.30851,1.47908 -0.30851,2.37298 v 3.2892 c 0,0.89389 0.102722,1.68827 0.30851,2.3828 0.212217,0.6881 0.514641,1.26975 0.90692,1.74563 0.392282,0.46945 0.868336,0.82636 1.427821,1.07074 0.565915,0.24437 1.205439,0.3669 1.919261,0.3669 0.720257,0 1.360297,-0.12253 1.91978,-0.3669 0.559485,-0.24438 1.03215,-0.60129 1.418002,-1.07074 0.38585,-0.47588 0.681495,-1.05753 0.887283,-1.74563 0.205788,-0.69453 0.309025,-1.48891 0.309025,-2.3828 v -3.2892 c 0,-0.8939 -0.103237,-1.68488 -0.309025,-2.37298 -0.205788,-0.69453 -0.50482,-1.28008 -0.897101,-1.75597 -0.38585,-0.47588 -0.861389,-0.83566 -1.427303,-1.08004 -0.559485,-0.2508 -1.199526,-0.3762 -1.91978,-0.3762 z m 23.691059,0 c -0.713822,0 -1.353347,0.1254 -1.919261,0.3762 -0.559485,0.24438 -1.03554,0.60416 -1.427821,1.08004 -0.38585,0.47589 -0.681496,1.06144 -0.887283,1.75597 -0.205788,0.6881 -0.309026,1.47908 -0.309026,2.37298 v 3.2892 c 0,0.89389 0.103238,1.68827 0.309026,2.3828 0.212217,0.6881 0.514122,1.26975 0.906404,1.74563 0.392282,0.46945 0.868336,0.82636 1.427819,1.07074 0.565914,0.24437 1.205957,0.3669 1.919779,0.3669 0.720254,0 1.359781,-0.12253 1.919264,-0.3669 0.559482,-0.24438 1.03215,-0.60129 1.418,-1.07074 0.385852,-0.47588 0.682016,-1.05753 0.887801,-1.74563 0.205788,-0.69453 0.30851,-1.48891 0.30851,-2.3828 v -3.2892 c 0,-0.8939 -0.102722,-1.68488 -0.30851,-2.37298 -0.205785,-0.69453 -0.504819,-1.28008 -0.897101,-1.75597 -0.385853,-0.47588 -0.861907,-0.83566 -1.427822,-1.08004 -0.559482,-0.2508 -1.199522,-0.3762 -1.919779,-0.3762 z m 23.691573,0 c -0.713823,0 -1.353861,0.1254 -1.919776,0.3762 -0.55948,0.24438 -1.035531,0.60416 -1.427818,1.08004 -0.385847,0.47589 -0.681498,1.06144 -0.887286,1.75597 -0.205785,0.6881 -0.308507,1.47908 -0.308507,2.37298 v 3.2892 c 0,0.89389 0.102722,1.68827 0.308507,2.3828 0.212215,0.6881 0.514636,1.26975 0.906923,1.74563 0.392279,0.46945 0.867823,0.82636 1.427303,1.07074 0.565912,0.24437 1.205952,0.3669 1.919784,0.3669 0.72025,0 1.36029,-0.12253 1.91978,-0.3669 0.55948,-0.24438 1.03214,-0.60129 1.418,-1.07074 0.38585,-0.47588 0.68149,-1.05753 0.88728,-1.74563 0.20579,-0.69453 0.30851,-1.48891 0.30851,-2.3828 v -3.2892 c 0,-0.8939 -0.10272,-1.68488 -0.30851,-2.37298 -0.20579,-0.69453 -0.50482,-1.28008 -0.8971,-1.75597 -0.38585,-0.47588 -0.86191,-0.83566 -1.42782,-1.08004 -0.55949,-0.2508 -1.19901,-0.3762 -1.91927,-0.3762 z m 11.845277,0 c -0.71382,0 -1.35335,0.1254 -1.91927,0.3762 -0.55948,0.24438 -1.03554,0.60416 -1.42782,1.08004 -0.38585,0.47589 -0.68149,1.06144 -0.88728,1.75597 -0.20579,0.6881 -0.30903,1.47908 -0.30903,2.37298 v 3.2892 c 0,0.89389 0.10324,1.68827 0.30903,2.3828 0.21222,0.6881 0.51413,1.26975 0.9064,1.74563 0.39228,0.46945 0.86834,0.82636 1.42782,1.07074 0.56592,0.24437 1.20596,0.3669 1.91978,0.3669 0.72026,0 1.35979,-0.12253 1.91927,-0.3669 0.55948,-0.24438 1.03215,-0.60129 1.418,-1.07074 0.38585,-0.47588 0.68201,-1.05753 0.8878,-1.74563 0.20579,-0.69453 0.30851,-1.48891 0.30851,-2.3828 v -3.2892 c 0,-0.8939 -0.10272,-1.68488 -0.30851,-2.37298 -0.20579,-0.69453 -0.50482,-1.28008 -0.8971,-1.75597 -0.38586,-0.47588 -0.86191,-0.83566 -1.42783,-1.08004 -0.55948,-0.2508 -1.19951,-0.3762 -1.91977,-0.3762 z m -46.002878,0.20257 -5.314921,2.04484 v 1.63039 l 3.67523,-1.39888 v 11.76827 h 1.784387 v -14.04462 z m 23.691062,0 -5.314921,2.04484 v 1.63039 l 3.675226,-1.39888 v 11.76827 h 1.784387 v -14.04462 z m 35.536846,0 -5.31492,2.04484 v 1.63039 l 3.67522,-1.39888 v 11.76827 h 1.78439 v -14.04462 z m 11.84579,0 -5.31492,2.04484 v 1.63039 l 3.67522,-1.39888 v 11.76827 h 1.78439 v -14.04462 z m -84.298729,1.26349 c 0.829577,0 1.462844,0.24454 1.900142,0.73329 0.443728,0.48232 0.717212,1.18937 0.820106,2.12183 l -5.469435,4.19613 v -3.32796 c 0,-1.21544 0.221866,-2.13809 0.665594,-2.76831 0.450159,-0.63665 1.14469,-0.95498 2.083593,-0.95498 z m 23.691059,0 c 0.82958,0 1.463363,0.24454 1.900661,0.73329 0.443727,0.48232 0.716695,1.18937 0.819586,2.12183 l -5.469432,4.19613 v -3.32796 c 0,-1.21544 0.221864,-2.13809 0.665591,-2.76831 0.45016,-0.63665 1.144691,-0.95498 2.083594,-0.95498 z m 23.691573,0 c 0.82958,0 1.46285,0.24454 1.90015,0.73329 0.44373,0.48232 0.71721,1.18937 0.8201,2.12183 l -5.469431,4.19613 v -3.32796 c 0,-1.21544 0.221867,-2.13809 0.665591,-2.76831 0.45016,-0.63665 1.144688,-0.95498 2.08359,-0.95498 z m 11.845277,0 c 0.82958,0 1.46336,0.24454 1.90066,0.73329 0.44372,0.48232 0.71669,1.18937 0.81958,2.12183 l -5.46943,4.19613 v -3.32796 c 0,-1.21544 0.22187,-2.13809 0.66559,-2.76831 0.45016,-0.63665 1.1447,-0.95498 2.0836,-0.95498 z m -56.468905,4.56251 v 3.22203 c 0,1.209 -0.221864,2.13504 -0.665591,2.77812 -0.437298,0.64309 -1.128959,0.9648 -2.074294,0.9648 -0.803854,0 -1.430861,-0.23829 -1.881021,-0.71417 -0.450159,-0.47588 -0.7299,-1.16703 -0.839226,-2.07377 z m 23.691061,0 v 3.22203 c 0,1.209 -0.221864,2.13504 -0.665594,2.77812 -0.437298,0.64309 -1.12844,0.9648 -2.073775,0.9648 -0.803854,0 -1.430861,-0.23829 -1.881021,-0.71417 -0.450159,-0.47588 -0.7299,-1.16703 -0.839226,-2.07377 z m 23.691057,0 v 3.22203 c 0,1.209 -0.22186,2.13504 -0.66559,2.77812 -0.4373,0.64309 -1.12844,0.9648 -2.07377,0.9648 -0.803859,0 -1.430866,-0.23829 -1.881028,-0.71417 -0.450159,-0.47588 -0.729898,-1.16703 -0.839224,-2.07377 z m 11.845787,0 v 3.22203 c 0,1.209 -0.22186,2.13504 -0.66559,2.77812 -0.43729,0.64309 -1.12844,0.9648 -2.07378,0.9648 -0.80386,0 -1.43086,-0.23829 -1.88102,-0.71417 -0.45015,-0.47588 -0.7299,-1.16703 -0.83922,-2.07377 z M 47.952111,177.4323 c -0.713824,0 -1.353865,0.1254 -1.919779,0.3762 -0.559486,0.24436 -1.035021,0.60467 -1.427303,1.08056 -0.385853,0.47588 -0.682014,1.06091 -0.887801,1.75545 -0.205788,0.6881 -0.30851,1.47908 -0.30851,2.37298 v 3.28972 c 0,0.89389 0.102722,1.68775 0.30851,2.38228 0.212217,0.6881 0.514641,1.27027 0.90692,1.74615 0.392282,0.46945 0.868336,0.82636 1.427821,1.07073 0.565915,0.24437 1.205439,0.36639 1.919261,0.36639 0.720257,0 1.360297,-0.12202 1.91978,-0.36639 0.559485,-0.24437 1.03215,-0.60128 1.418002,-1.07073 0.38585,-0.47588 0.681495,-1.05805 0.887283,-1.74615 0.205788,-0.69453 0.309025,-1.48839 0.309025,-2.38228 v -3.28972 c 0,-0.8939 -0.103237,-1.68488 -0.309025,-2.37298 -0.205788,-0.69454 -0.50482,-1.27957 -0.897101,-1.75545 -0.38585,-0.47589 -0.861389,-0.8362 -1.427303,-1.08056 -0.559485,-0.2508 -1.199526,-0.3762 -1.91978,-0.3762 z m 23.691059,0 c -0.713822,0 -1.353347,0.1254 -1.919261,0.3762 -0.559485,0.24436 -1.03554,0.60467 -1.427821,1.08056 -0.38585,0.47588 -0.681496,1.06091 -0.887283,1.75545 -0.205788,0.6881 -0.309026,1.47908 -0.309026,2.37298 v 3.28972 c 0,0.89389 0.103238,1.68775 0.309026,2.38228 0.212217,0.6881 0.514122,1.27027 0.906404,1.74615 0.392282,0.46945 0.868336,0.82636 1.427819,1.07073 0.565914,0.24437 1.205957,0.36639 1.919779,0.36639 0.720254,0 1.359781,-0.12202 1.919264,-0.36639 0.559482,-0.24437 1.03215,-0.60128 1.418,-1.07073 0.385852,-0.47588 0.682016,-1.05805 0.887801,-1.74615 0.205788,-0.69453 0.30851,-1.48839 0.30851,-2.38228 v -3.28972 c 0,-0.8939 -0.102722,-1.68488 -0.30851,-2.37298 -0.205785,-0.69454 -0.504819,-1.27957 -0.897101,-1.75545 -0.385853,-0.47589 -0.861907,-0.8362 -1.427822,-1.08056 -0.559482,-0.2508 -1.199522,-0.3762 -1.919779,-0.3762 z m 23.691573,0 c -0.713823,0 -1.353861,0.1254 -1.919776,0.3762 -0.55948,0.24436 -1.035531,0.60467 -1.427818,1.08056 -0.385847,0.47588 -0.681498,1.06091 -0.887286,1.75545 -0.205785,0.6881 -0.308507,1.47908 -0.308507,2.37298 v 3.28972 c 0,0.89389 0.102722,1.68775 0.308507,2.38228 0.212215,0.6881 0.514636,1.27027 0.906923,1.74615 0.392279,0.46945 0.867823,0.82636 1.427303,1.07073 0.565912,0.24437 1.205952,0.36639 1.919784,0.36639 0.72025,0 1.36029,-0.12202 1.91978,-0.36639 0.55948,-0.24437 1.03214,-0.60128 1.418,-1.07073 0.38585,-0.47588 0.68149,-1.05805 0.88728,-1.74615 0.20579,-0.69453 0.30851,-1.48839 0.30851,-2.38228 v -3.28972 c 0,-0.8939 -0.10272,-1.68488 -0.30851,-2.37298 -0.20579,-0.69454 -0.50482,-1.27957 -0.8971,-1.75545 -0.38585,-0.47589 -0.86191,-0.8362 -1.42782,-1.08056 -0.55949,-0.2508 -1.19901,-0.3762 -1.91927,-0.3762 z m 23.691067,0 c -0.71382,0 -1.35387,0.1254 -1.91978,0.3762 -0.55949,0.24436 -1.03503,0.60467 -1.42731,1.08056 -0.38585,0.47588 -0.68201,1.06091 -0.8878,1.75545 -0.20579,0.6881 -0.30851,1.47908 -0.30851,2.37298 v 1.46089 l 1.79421,-1.0356 v -0.82062 c 0,-1.21542 0.22186,-2.13808 0.66559,-2.7683 0.45016,-0.63666 1.14469,-0.95498 2.0836,-0.95498 0.82958,0 1.46284,0.24402 1.90014,0.73277 0.20859,0.22673 0.37828,0.50521 0.51159,0.83147 l 1.42731,-0.82424 c -0.14374,-0.27369 -0.30658,-0.52493 -0.49196,-0.74982 -0.38585,-0.47589 -0.86139,-0.8362 -1.42731,-1.08056 -0.55948,-0.2508 -1.19952,-0.3762 -1.91977,-0.3762 z m -57.848668,0.20257 -5.314921,2.04535 v 1.62988 l 3.67523,-1.39837 v 11.76828 h 1.784387 v -14.04514 z m 23.691062,0 -5.314921,2.04535 v 1.62988 l 3.675226,-1.39837 v 11.76828 h 1.784387 v -14.04514 z m 23.691576,0 -5.31544,2.04535 v 1.62988 l 3.67523,-1.39837 v 8.93331 l 1.7849,-1.03043 v -10.17974 z m -60.607669,1.26401 c 0.829577,0 1.462844,0.24402 1.900142,0.73277 0.443728,0.48231 0.717212,1.18988 0.820106,2.12235 l -5.469435,4.19612 v -3.32796 c 0,-1.21542 0.221866,-2.13808 0.665594,-2.7683 0.450159,-0.63666 1.14469,-0.95498 2.083593,-0.95498 z m 23.691059,0 c 0.82958,0 1.463363,0.24402 1.900661,0.73277 0.443727,0.48231 0.716695,1.18988 0.819586,2.12235 l -5.469432,4.19612 v -3.32796 c 0,-1.21542 0.221864,-2.13808 0.665591,-2.7683 0.45016,-0.63666 1.144691,-0.95498 2.083594,-0.95498 z m 23.691573,0 c 0.82958,0 1.46285,0.24402 1.90015,0.73277 0.44373,0.48231 0.71721,1.18988 0.8201,2.12235 l -5.469431,4.19612 v -3.32796 c 0,-1.21542 0.221867,-2.13808 0.665591,-2.7683 0.45016,-0.63666 1.144688,-0.95498 2.08359,-0.95498 z m -44.623628,4.56251 v 3.22202 c 0,1.209 -0.221864,2.13504 -0.665591,2.77813 -0.437298,0.64308 -1.128959,0.96428 -2.074294,0.96428 -0.803854,0 -1.430861,-0.23777 -1.881021,-0.71365 -0.450159,-0.47588 -0.7299,-1.16702 -0.839226,-2.07378 z m 23.691061,0 v 3.22202 c 0,1.209 -0.221864,2.13504 -0.665594,2.77813 -0.437298,0.64308 -1.12844,0.96428 -2.073775,0.96428 -0.803854,0 -1.430861,-0.23777 -1.881021,-0.71365 -0.450159,-0.47588 -0.7299,-1.16702 -0.839226,-2.07378 z m 23.691057,0 v 3.22202 c 0,1.209 -0.22186,2.13504 -0.66559,2.77813 -0.4373,0.64308 -1.12844,0.96428 -2.07377,0.96428 -0.803859,0 -1.430866,-0.23777 -1.881028,-0.71365 -0.450159,-0.47588 -0.729898,-1.16702 -0.839224,-2.07378 z m -50.141122,18.66553 c -0.713824,0 -1.353865,0.1254 -1.919779,0.3762 -0.559486,0.24437 -1.035021,0.60467 -1.427303,1.08055 -0.385853,0.47589 -0.682014,1.06093 -0.887801,1.75545 -0.205788,0.6881 -0.30851,1.47909 -0.30851,2.37298 v 3.28921 c 0,0.89388 0.102722,1.68827 0.30851,2.3828 0.212217,0.6881 0.514641,1.27026 0.90692,1.74615 0.392282,0.46944 0.868336,0.82636 1.427821,1.07073 0.565915,0.24437 1.205439,0.36639 1.919261,0.36639 0.720257,0 1.360297,-0.12202 1.91978,-0.36639 0.559485,-0.24437 1.03215,-0.60129 1.418002,-1.07073 0.38585,-0.47589 0.681495,-1.05805 0.887283,-1.74615 0.205788,-0.69453 0.309025,-1.48892 0.309025,-2.3828 v -3.28921 c 0,-0.89389 -0.103237,-1.68488 -0.309025,-2.37298 -0.205788,-0.69452 -0.50482,-1.27956 -0.897101,-1.75545 -0.38585,-0.47588 -0.861389,-0.83618 -1.427303,-1.08055 -0.559485,-0.2508 -1.199526,-0.3762 -1.91978,-0.3762 z m 23.691059,0 c -0.713822,0 -1.353347,0.1254 -1.919261,0.3762 -0.559485,0.24437 -1.03554,0.60467 -1.427821,1.08055 -0.38585,0.47589 -0.681496,1.06093 -0.887283,1.75545 -0.205788,0.6881 -0.309026,1.47909 -0.309026,2.37298 v 3.28921 c 0,0.28249 0.01402,0.5513 0.03462,0.8139 l 9.001,-5.1971 c -0.05041,-0.45833 -0.130397,-0.88732 -0.247531,-1.27899 -0.205785,-0.69452 -0.504819,-1.27956 -0.897101,-1.75545 -0.385853,-0.47588 -0.861907,-0.83618 -1.427822,-1.08055 -0.559482,-0.2508 -1.199522,-0.3762 -1.919779,-0.3762 z m 11.84579,0 c -0.713825,0 -1.353865,0.1254 -1.91978,0.3762 -0.559485,0.24437 -1.035021,0.60467 -1.427303,1.08055 -0.255418,0.31502 -0.467788,0.68271 -0.644405,1.09348 l 4.386812,-2.53267 c -0.129894,-0.009 -0.259744,-0.0176 -0.395324,-0.0176 z m -22.311818,0.20257 -5.314921,2.04483 v 1.6304 l 3.67523,-1.39889 v 11.59516 l 1.784387,-1.02991 v -12.84159 z m -13.225031,1.26348 c 0.829577,0 1.462844,0.24455 1.900142,0.73329 0.443728,0.48232 0.717212,1.18989 0.820106,2.12235 l -5.469435,4.19613 v -3.32796 c 0,-1.21543 0.221866,-2.1386 0.665594,-2.76882 0.450159,-0.63666 1.14469,-0.95499 2.083593,-0.95499 z m 23.691059,0 c 0.82958,0 1.463363,0.24455 1.900661,0.73329 0.443727,0.48232 0.716695,1.18989 0.819586,2.12235 l -5.469432,4.19613 v -3.32796 c 0,-1.21543 0.221864,-2.1386 0.665591,-2.76882 0.45016,-0.63666 1.144691,-0.95499 2.083594,-0.95499 z m -20.932055,4.56304 v 3.2215 c 0,1.20901 -0.221864,2.13506 -0.665591,2.77813 -0.437298,0.64308 -1.128959,0.9648 -2.074294,0.9648 -0.803854,0 -1.430861,-0.23778 -1.881021,-0.71365 -0.450159,-0.4759 -0.7299,-1.16756 -0.839226,-2.0743 z"
       style="font-style:normal;font-variant:normal;font-weight:normal;font-stretch:normal;font-size:19.75555611px;line-height:1.25;font-family:'Roboto Mono';-inkscape-font-specification:'Roboto Mono';letter-spacing:0px;word-spacing:0px;fill:#81d4ff;fill-opacity:0.94117647;stroke:none;stroke-width:0.26458332" />
    <path
       id="path2283"
       d="m 153.41751,177.63487 -5.31492,2.04535 v 1.62988 l 3.67523,-1.39837 v 11.76828 h 1.78438 v -14.04514 z m -9.38599,2.00401 -1.4273,0.82424 c 0.15027,0.36776 0.25398,0.79676 0.30851,1.29088 l -5.46944,4.19612 v -2.50734 l -1.7942,1.0356 v 1.82883 c 0,0.89389 0.10271,1.68775 0.3085,2.38228 0.21222,0.6881 0.51465,1.27027 0.90693,1.74615 0.39227,0.46945 0.86834,0.82636 1.42782,1.07073 0.56592,0.24438 1.20544,0.36639 1.91926,0.36639 0.72026,0 1.3603,-0.12201 1.91978,-0.36639 0.55949,-0.24437 1.03215,-0.60128 1.418,-1.07073 0.38585,-0.47588 0.68149,-1.05805 0.88728,-1.74615 0.20579,-0.69453 0.30903,-1.48839 0.30903,-2.38228 v -3.28972 c 0,-0.8939 -0.10324,-1.68488 -0.30903,-2.37298 -0.10857,-0.36643 -0.24467,-0.70012 -0.40514,-1.00563 z m -1.08004,3.82251 v 3.22202 c 0,1.209 -0.22186,2.13504 -0.66559,2.77813 -0.4373,0.64308 -1.12895,0.96428 -2.07429,0.96428 -0.80386,0 -1.43086,-0.23777 -1.88102,-0.71365 -0.45016,-0.47588 -0.72991,-1.16702 -0.83923,-2.07378 z m -13.08034,4.35322 -1.7849,1.03043 v 2.83497 h 1.7849 z m -13.36972,14.31231 c -0.71383,0 -1.35386,0.1254 -1.91978,0.3762 -0.55948,0.24437 -1.03553,0.60467 -1.42782,1.08055 -0.38584,0.47589 -0.6815,1.06093 -0.88729,1.75545 -0.20579,0.6881 -0.3085,1.47909 -0.3085,2.37298 v 3.28921 c 0,0.89388 0.10271,1.68827 0.3085,2.3828 0.21222,0.6881 0.51464,1.27025 0.90693,1.74615 0.39228,0.46943 0.86782,0.82636 1.4273,1.07073 0.56592,0.24437 1.20595,0.36639 1.91978,0.36639 0.72025,0 1.36029,-0.12202 1.91978,-0.36639 0.55948,-0.24437 1.03214,-0.6013 1.418,-1.07073 0.38585,-0.4759 0.68149,-1.05805 0.88728,-1.74615 0.20579,-0.69453 0.30851,-1.48892 0.30851,-2.3828 v -3.28921 c 0,-0.89389 -0.10272,-1.68488 -0.30851,-2.37298 -0.20579,-0.69452 -0.50482,-1.27956 -0.8971,-1.75545 -0.38585,-0.47588 -0.86191,-0.83618 -1.42782,-1.08055 -0.55949,-0.2508 -1.199,-0.3762 -1.91926,-0.3762 z m 11.84527,0 c -0.71382,0 -1.35334,0.1254 -1.91926,0.3762 -0.55948,0.24437 -1.03554,0.60467 -1.42782,1.08055 -0.38585,0.47589 -0.6815,1.06093 -0.88729,1.75545 -0.20579,0.6881 -0.30902,1.47909 -0.30902,2.37298 v 3.28921 c 0,0.89388 0.10323,1.68827 0.30902,2.3828 0.21222,0.6881 0.51414,1.27025 0.90641,1.74615 0.39228,0.46943 0.86834,0.82636 1.42782,1.07073 0.56592,0.24437 1.20596,0.36639 1.91978,0.36639 0.72026,0 1.35978,-0.12202 1.91926,-0.36639 0.55948,-0.24437 1.03215,-0.6013 1.418,-1.07073 0.38585,-0.4759 0.68201,-1.05805 0.8878,-1.74615 0.20579,-0.69453 0.30851,-1.48892 0.30851,-2.3828 v -3.28921 c 0,-0.89389 -0.10272,-1.68488 -0.30851,-2.37298 -0.20579,-0.69452 -0.50482,-1.27956 -0.8971,-1.75545 -0.38586,-0.47588 -0.8619,-0.83618 -1.42782,-1.08055 -0.55948,-0.2508 -1.19952,-0.3762 -1.91978,-0.3762 z m 23.69158,0 c -0.71382,0 -1.35386,0.1254 -1.91978,0.3762 -0.55948,0.24437 -1.03554,0.60467 -1.42782,1.08055 -0.38585,0.47589 -0.6815,1.06093 -0.88729,1.75545 -0.20579,0.6881 -0.3085,1.47909 -0.3085,2.37298 v 3.28921 c 0,0.89388 0.10271,1.68827 0.3085,2.3828 0.21222,0.6881 0.51464,1.27025 0.90692,1.74615 0.39228,0.46943 0.86783,0.82636 1.42731,1.07073 0.56592,0.24437 1.20596,0.36639 1.91978,0.36639 0.72026,0 1.3603,-0.12202 1.91978,-0.36639 0.55949,-0.24437 1.03215,-0.6013 1.418,-1.07073 0.38585,-0.4759 0.68149,-1.05805 0.88728,-1.74615 0.20578,-0.69453 0.30851,-1.48892 0.30851,-2.3828 v -3.28921 c 0,-0.89389 -0.10273,-1.68488 -0.30851,-2.37298 -0.20579,-0.69452 -0.50481,-1.27956 -0.8971,-1.75545 -0.38585,-0.47588 -0.86191,-0.83618 -1.42782,-1.08055 -0.55948,-0.2508 -1.199,-0.3762 -1.91926,-0.3762 z m -46.98783,0.0181 -4.38579,2.53215 c -0.0902,0.20977 -0.17434,0.42719 -0.24391,0.66197 -0.20579,0.6881 -0.30851,1.47909 -0.30851,2.37298 v 3.28921 c 0,0.89388 0.10272,1.68827 0.30851,2.3828 0.21222,0.6881 0.51464,1.27025 0.90692,1.74615 0.39229,0.46943 0.86833,0.82636 1.42782,1.07073 0.56591,0.24437 1.20545,0.36639 1.91927,0.36639 0.72025,0 1.36029,-0.12202 1.91978,-0.36639 0.55948,-0.24437 1.03215,-0.6013 1.418,-1.07073 0.38585,-0.4759 0.68149,-1.05805 0.88728,-1.74615 0.20578,-0.69453 0.30903,-1.48892 0.30903,-2.3828 v -3.28921 c 0,-0.89389 -0.10325,-1.68488 -0.30903,-2.37298 -0.20579,-0.69452 -0.50481,-1.27956 -0.8971,-1.75545 -0.38585,-0.47588 -0.86138,-0.83618 -1.4273,-1.08055 -0.45441,-0.2037 -0.96448,-0.31986 -1.52497,-0.35812 z m 36.52128,0.18449 -5.31492,2.04483 v 1.6304 l 3.67523,-1.39889 v 11.76879 h 1.78439 v -14.04513 z m -36.91609,1.26348 c 0.82957,0 1.46284,0.24455 1.90014,0.73329 0.44373,0.48232 0.71721,1.18989 0.82011,2.12235 l -5.46944,4.19613 v -3.32796 c 0,-1.21543 0.22186,-2.1386 0.66559,-2.76882 0.45016,-0.63667 1.1447,-0.95499 2.0836,-0.95499 z m 11.84579,0 c 0.82958,0 1.46284,0.24455 1.90014,0.73329 0.44373,0.48232 0.71722,1.18989 0.8201,2.12235 l -5.46943,4.19613 v -3.32796 c 0,-1.21543 0.22186,-2.1386 0.66559,-2.76882 0.45016,-0.63667 1.1447,-0.95499 2.0836,-0.95499 z m 11.84527,0 c 0.82958,0 1.46336,0.24455 1.90066,0.73329 0.44372,0.48232 0.7167,1.18989 0.81959,2.12235 l -5.46944,4.19613 v -3.32796 c 0,-1.21543 0.22188,-2.1386 0.66559,-2.76882 0.45017,-0.63667 1.1447,-0.95499 2.0836,-0.95499 z m 23.69158,0 c 0.82958,0 1.46285,0.24455 1.90014,0.73329 0.44373,0.48232 0.71721,1.18989 0.8201,2.12235 l -5.46943,4.19613 v -3.32796 c 0,-1.21543 0.22186,-2.1386 0.66559,-2.76882 0.45016,-0.63667 1.1447,-0.95499 2.0836,-0.95499 z m -54.736199,3.02514 -9.001001,5.19659 c 0.04455,0.56872 0.133575,1.09411 0.274402,1.56941 0.21222,0.6881 0.514125,1.27025 0.906404,1.74615 0.392279,0.46943 0.868331,0.82636 1.427819,1.07073 0.565912,0.24437 1.20596,0.36639 1.91978,0.36639 0.720251,0 1.359783,-0.12202 1.919263,-0.36639 0.55948,-0.24437 1.032142,-0.6013 1.418,-1.07073 0.38585,-0.4759 0.682011,-1.05805 0.887802,-1.74615 0.20579,-0.69453 0.308509,-1.48892 0.308509,-2.3828 v -3.28921 c 0,-0.38508 -0.02282,-0.74709 -0.06098,-1.09399 z m -1.733228,1.5379 v 3.2215 c 0,1.20901 -0.221863,2.13506 -0.665593,2.77813 -0.437291,0.64308 -1.128446,0.9648 -2.073775,0.9648 -0.80385,0 -1.430862,-0.23778 -1.881021,-0.71365 -0.45016,-0.4759 -0.729906,-1.16756 -0.839227,-2.0743 z m 11.845787,0 v 3.2215 c 0,1.20901 -0.22186,2.13506 -0.66559,2.77813 -0.4373,0.64308 -1.12896,0.9648 -2.07429,0.9648 -0.80386,0 -1.43087,-0.23778 -1.88103,-0.71365 -0.45015,-0.4759 -0.72989,-1.16756 -0.83922,-2.0743 z m 11.84527,0 v 3.2215 c 0,1.20901 -0.22186,2.13506 -0.66559,2.77813 -0.4373,0.64308 -1.12844,0.9648 -2.07377,0.9648 -0.80386,0 -1.43086,-0.23778 -1.88102,-0.71365 -0.45016,-0.4759 -0.72991,-1.16756 -0.83923,-2.0743 z m 11.84579,0 v 3.2215 c 0,1.20901 -0.22186,2.13506 -0.66559,2.77813 -0.43729,0.64308 -1.12843,0.9648 -2.07377,0.9648 -0.80386,0 -1.43087,-0.23778 -1.88102,-0.71365 -0.45016,-0.4759 -0.72991,-1.16756 -0.83923,-2.0743 z m 23.69106,0 v 3.2215 c 0,1.20901 -0.22186,2.13506 -0.66559,2.77813 -0.43729,0.64308 -1.12843,0.9648 -2.07377,0.9648 -0.80386,0 -1.43086,-0.23778 -1.88103,-0.71365 -0.45014,-0.4759 -0.7299,-1.16756 -0.83922,-2.0743 z m -72.308245,7.01507 -1.784387,1.02991 v 0.17363 h 1.784387 z m -13.369726,11.65045 c -0.71383,0 -1.353871,0.12539 -1.91978,0.37621 -0.559491,0.24436 -1.035024,0.60414 -1.427303,1.08003 -0.38586,0.47587 -0.682021,1.06145 -0.887801,1.75597 -0.20579,0.6881 -0.30851,1.47909 -0.30851,2.37298 v 3.28921 c 0,0.89386 0.10272,1.68825 0.30851,2.3828 0.212209,0.68808 0.514641,1.26974 0.90692,1.74562 0.392282,0.46947 0.868331,0.82637 1.427821,1.07074 0.56591,0.24436 1.205431,0.3669 1.919261,0.3669 0.720262,0 1.3603,-0.12254 1.91978,-0.3669 0.559491,-0.24437 1.032153,-0.60127 1.418003,-1.07074 0.385849,-0.47588 0.681492,-1.05754 0.887282,-1.74562 0.20578,-0.69455 0.309026,-1.48894 0.309026,-2.3828 v -3.28921 c 0,-0.89389 -0.103246,-1.68487 -0.309026,-2.37298 -0.20579,-0.69452 -0.504811,-1.2801 -0.897101,-1.75597 -0.38585,-0.47589 -0.861383,-0.83567 -1.427303,-1.08003 -0.55948,-0.25082 -1.19952,-0.37621 -1.919779,-0.37621 z m 23.691058,0 c -0.713819,0 -1.353341,0.12539 -1.919261,0.37621 -0.55949,0.24436 -1.035539,0.60414 -1.427821,1.08003 -0.38585,0.47587 -0.681493,1.06145 -0.887283,1.75597 -0.20578,0.6881 -0.309025,1.47909 -0.309025,2.37298 v 3.28921 c 0,0.89386 0.103245,1.68825 0.309025,2.3828 0.21222,0.68808 0.514125,1.26974 0.906404,1.74562 0.392279,0.46947 0.868331,0.82637 1.427819,1.07074 0.565912,0.24436 1.20596,0.3669 1.91978,0.3669 0.720251,0 1.359783,-0.12254 1.919263,-0.3669 0.55948,-0.24437 1.032142,-0.60127 1.418,-1.07074 0.38585,-0.47588 0.682011,-1.05754 0.887802,-1.74562 0.20579,-0.69455 0.308509,-1.48894 0.308509,-2.3828 v -3.28921 c 0,-0.89389 -0.102719,-1.68487 -0.308509,-2.37298 -0.205791,-0.69452 -0.504823,-1.2801 -0.897102,-1.75597 -0.38586,-0.47589 -0.861901,-0.83567 -1.427821,-1.08003 -0.55948,-0.25082 -1.199518,-0.37621 -1.91978,-0.37621 z m 11.845793,0 c -0.71383,0 -1.35387,0.12539 -1.91978,0.37621 -0.55949,0.24436 -1.03503,0.60414 -1.42731,1.08003 -0.38586,0.47587 -0.68201,1.06145 -0.8878,1.75597 -0.20579,0.6881 -0.30851,1.47909 -0.30851,2.37298 v 3.28921 c 0,0.89386 0.10272,1.68825 0.30851,2.3828 0.21222,0.68808 0.51464,1.26974 0.90692,1.74562 0.39229,0.46947 0.86833,0.82637 1.42782,1.07074 0.56591,0.24436 1.20545,0.3669 1.91927,0.3669 0.72025,0 1.36029,-0.12254 1.91978,-0.3669 0.55948,-0.24437 1.03215,-0.60127 1.418,-1.07074 0.38585,-0.47588 0.68149,-1.05754 0.88728,-1.74562 0.20578,-0.69455 0.30903,-1.48894 0.30903,-2.3828 v -3.28921 c 0,-0.89389 -0.10325,-1.68487 -0.30903,-2.37298 -0.20579,-0.69452 -0.50481,-1.2801 -0.8971,-1.75597 -0.38585,-0.47589 -0.86138,-0.83567 -1.4273,-1.08003 -0.55949,-0.25082 -1.19953,-0.37621 -1.91978,-0.37621 z m 11.84579,0 c -0.71383,0 -1.35386,0.12539 -1.91978,0.37621 -0.55948,0.24436 -1.03553,0.60414 -1.42782,1.08003 -0.38584,0.47587 -0.6815,1.06145 -0.88729,1.75597 -0.20579,0.6881 -0.3085,1.47909 -0.3085,2.37298 v 3.28921 c 0,0.89386 0.10271,1.68825 0.3085,2.3828 0.21222,0.68808 0.51464,1.26974 0.90693,1.74562 0.39228,0.46947 0.86782,0.82637 1.4273,1.07074 0.56592,0.24436 1.20595,0.3669 1.91978,0.3669 0.72025,0 1.36029,-0.12254 1.91978,-0.3669 0.55948,-0.24437 1.03214,-0.60127 1.418,-1.07074 0.38585,-0.47588 0.68149,-1.05754 0.88728,-1.74562 0.20579,-0.69455 0.30851,-1.48894 0.30851,-2.3828 v -3.28921 c 0,-0.89389 -0.10272,-1.68487 -0.30851,-2.37298 -0.20579,-0.69452 -0.50482,-1.2801 -0.8971,-1.75597 -0.38585,-0.47589 -0.86191,-0.83567 -1.42782,-1.08003 -0.55949,-0.25082 -1.199,-0.37621 -1.91926,-0.37621 z m 11.84527,0 c -0.71382,0 -1.35334,0.12539 -1.91926,0.37621 -0.55948,0.24436 -1.03554,0.60414 -1.42782,1.08003 -0.38585,0.47587 -0.6815,1.06145 -0.88729,1.75597 -0.20579,0.6881 -0.30902,1.47909 -0.30902,2.37298 v 3.28921 c 0,0.89386 0.10323,1.68825 0.30902,2.3828 0.21222,0.68808 0.51414,1.26974 0.90641,1.74562 0.39228,0.46947 0.86834,0.82637 1.42782,1.07074 0.56592,0.24436 1.20596,0.3669 1.91978,0.3669 0.72026,0 1.35978,-0.12254 1.91926,-0.3669 0.55948,-0.24437 1.03215,-0.60127 1.418,-1.07074 0.38585,-0.47588 0.68201,-1.05754 0.8878,-1.74562 0.20579,-0.69455 0.30851,-1.48894 0.30851,-2.3828 v -3.28921 c 0,-0.89389 -0.10272,-1.68487 -0.30851,-2.37298 -0.20579,-0.69452 -0.50482,-1.2801 -0.8971,-1.75597 -0.38586,-0.47589 -0.8619,-0.83567 -1.42782,-1.08003 -0.55948,-0.25082 -1.19952,-0.37621 -1.91978,-0.37621 z m 11.84579,0 c -0.71382,0 -1.35387,0.12539 -1.91978,0.37621 -0.55949,0.24436 -1.03504,0.60414 -1.4273,1.08003 -0.38585,0.47587 -0.68201,1.06145 -0.88781,1.75597 -0.20579,0.6881 -0.3085,1.47909 -0.3085,2.37298 v 3.28921 c 0,0.89386 0.10271,1.68825 0.3085,2.3828 0.21222,0.68808 0.51465,1.26974 0.90693,1.74562 0.39227,0.46947 0.86834,0.82637 1.42782,1.07074 0.56592,0.24436 1.20544,0.3669 1.91926,0.3669 0.72026,0 1.3603,-0.12254 1.91978,-0.3669 0.55949,-0.24437 1.03215,-0.60127 1.418,-1.07074 0.38585,-0.47588 0.68149,-1.05754 0.88728,-1.74562 0.20579,-0.69455 0.30903,-1.48894 0.30903,-2.3828 v -3.28921 c 0,-0.89389 -0.10324,-1.68487 -0.30903,-2.37298 -0.20579,-0.69452 -0.50482,-1.2801 -0.8971,-1.75597 -0.38585,-0.47589 -0.86138,-0.83567 -1.4273,-1.08003 -0.55948,-0.25082 -1.19953,-0.37621 -1.91978,-0.37621 z m -57.84867,0.20257 -5.314921,2.04484 v 1.63039 l 3.675229,-1.39888 v 11.76827 h 1.784387 V 227.0241 Z m 71.0737,0 -5.31492,2.04484 v 1.63039 l 3.67523,-1.39888 v 11.76827 h 1.78438 V 227.0241 Z m -84.298731,1.26349 c 0.829577,0 1.462852,0.24454 1.900142,0.73329 0.44373,0.48231 0.717214,1.18937 0.820105,2.12183 l -5.469435,4.19613 v -3.32796 c 0,-1.21543 0.221864,-2.13809 0.665594,-2.76831 0.450149,-0.63666 1.144693,-0.95498 2.083594,-0.95498 z m 23.691058,0 c 0.82958,0 1.463371,0.24454 1.900661,0.73329 0.44373,0.48231 0.716698,1.18937 0.819587,2.12183 l -5.469433,4.19613 v -3.32796 c 0,-1.21543 0.221861,-2.13809 0.665591,-2.76831 0.45016,-0.63666 1.144694,-0.95498 2.083594,-0.95498 z m 11.845793,0 c 0.82957,0 1.46284,0.24454 1.90014,0.73329 0.44373,0.48231 0.71721,1.18937 0.82011,2.12183 l -5.46944,4.19613 v -3.32796 c 0,-1.21543 0.22186,-2.13809 0.66559,-2.76831 0.45016,-0.63666 1.1447,-0.95498 2.0836,-0.95498 z m 11.84579,0 c 0.82958,0 1.46284,0.24454 1.90014,0.73329 0.44373,0.48231 0.71722,1.18937 0.8201,2.12183 l -5.46943,4.19613 v -3.32796 c 0,-1.21543 0.22186,-2.13809 0.66559,-2.76831 0.45016,-0.63666 1.1447,-0.95498 2.0836,-0.95498 z m 11.84527,0 c 0.82958,0 1.46336,0.24454 1.90066,0.73329 0.44372,0.48231 0.7167,1.18937 0.81959,2.12183 l -5.46944,4.19613 v -3.32796 c 0,-1.21543 0.22188,-2.13809 0.66559,-2.76831 0.45017,-0.63666 1.1447,-0.95498 2.0836,-0.95498 z m 11.84579,0 c 0.82958,0 1.46284,0.24454 1.90014,0.73329 0.44372,0.48231 0.71721,1.18937 0.82011,2.12183 l -5.46944,4.19613 v -3.32796 c 0,-1.21543 0.22186,-2.13809 0.66559,-2.76831 0.45016,-0.63666 1.14469,-0.95498 2.0836,-0.95498 z m -68.314698,4.56251 v 3.22203 c 0,1.209 -0.221861,2.13504 -0.665591,2.77812 -0.43729,0.64308 -1.128953,0.9648 -2.074294,0.9648 -0.803857,0 -1.430861,-0.23828 -1.88102,-0.71416 -0.45016,-0.47588 -0.729896,-1.16703 -0.839227,-2.07378 z m 23.691061,0 v 3.22203 c 0,1.209 -0.221863,2.13504 -0.665593,2.77812 -0.437291,0.64308 -1.128446,0.9648 -2.073775,0.9648 -0.80385,0 -1.430862,-0.23828 -1.881021,-0.71416 -0.45016,-0.47588 -0.729906,-1.16703 -0.839227,-2.07378 z m 11.845787,0 v 3.22203 c 0,1.209 -0.22186,2.13504 -0.66559,2.77812 -0.4373,0.64308 -1.12896,0.9648 -2.07429,0.9648 -0.80386,0 -1.43087,-0.23828 -1.88103,-0.71416 -0.45015,-0.47588 -0.72989,-1.16703 -0.83922,-2.07378 z m 11.84527,0 v 3.22203 c 0,1.209 -0.22186,2.13504 -0.66559,2.77812 -0.4373,0.64308 -1.12844,0.9648 -2.07377,0.9648 -0.80386,0 -1.43086,-0.23828 -1.88102,-0.71416 -0.45016,-0.47588 -0.72991,-1.16703 -0.83923,-2.07378 z m 11.84579,0 v 3.22203 c 0,1.209 -0.22186,2.13504 -0.66559,2.77812 -0.43729,0.64308 -1.12843,0.9648 -2.07377,0.9648 -0.80386,0 -1.43087,-0.23828 -1.88102,-0.71416 -0.45016,-0.47588 -0.72991,-1.16703 -0.83923,-2.07378 z m 11.84579,0 v 3.22203 c 0,1.209 -0.22186,2.13504 -0.66559,2.77812 -0.4373,0.64308 -1.12895,0.9648 -2.07429,0.9648 -0.80386,0 -1.43086,-0.23828 -1.88102,-0.71416 -0.45016,-0.47588 -0.72991,-1.16703 -0.83923,-2.07378 z m -73.832701,18.66553 c -0.71383,0 -1.353871,0.1254 -1.91978,0.37621 -0.559491,0.24438 -1.035024,0.60467 -1.427303,1.08055 -0.38586,0.47589 -0.682021,1.06092 -0.887801,1.75545 -0.20579,0.6881 -0.30851,1.47909 -0.30851,2.37298 v 3.28972 c 0,0.89389 0.10272,1.68775 0.30851,2.38229 0.212209,0.68808 0.514641,1.27025 0.90692,1.74614 0.392282,0.46947 0.868331,0.82637 1.427821,1.07074 0.56591,0.24437 1.205431,0.36638 1.919261,0.36638 0.720262,0 1.3603,-0.12201 1.91978,-0.36638 0.559491,-0.24437 1.03215,-0.60129 1.418003,-1.07074 0.385849,-0.47588 0.681492,-1.05805 0.887282,-1.74614 0.20578,-0.69454 0.309026,-1.4884 0.309026,-2.38229 v -3.28972 c 0,-0.89389 -0.103246,-1.68488 -0.309026,-2.37298 -0.20579,-0.69453 -0.504811,-1.27956 -0.897101,-1.75545 -0.38585,-0.47588 -0.861383,-0.83618 -1.427303,-1.08055 -0.55948,-0.25081 -1.19952,-0.37622 -1.919779,-0.37621 z m 11.845787,0 c -0.71383,0 -1.35386,0.1254 -1.91978,0.37621 -0.55948,0.24438 -1.035529,0.60467 -1.427818,1.08055 -0.38585,0.47589 -0.681496,1.06092 -0.887286,1.75545 -0.20579,0.6881 -0.308507,1.47909 -0.308507,2.37298 v 3.28972 c 0,0.89389 0.102717,1.68775 0.308507,2.38229 0.21222,0.68808 0.514641,1.27025 0.906923,1.74614 0.392279,0.46947 0.867823,0.82637 1.427303,1.07074 0.56592,0.24437 1.205949,0.36638 1.919779,0.36638 0.720249,0 1.360289,-0.12201 1.91978,-0.36638 0.55948,-0.24437 1.03215,-0.60129 1.418,-1.07074 0.385852,-0.47588 0.681495,-1.05805 0.887285,-1.74614 0.205788,-0.69454 0.308507,-1.4884 0.308507,-2.38229 v -3.28972 c 0,-0.89389 -0.102719,-1.68488 -0.308507,-2.37298 -0.20579,-0.69453 -0.504822,-1.27956 -0.897104,-1.75545 -0.38585,-0.47588 -0.861909,-0.83618 -1.427818,-1.08055 -0.55948,-0.25081 -1.199013,-0.37622 -1.919264,-0.37621 z m 11.845271,0 c -0.713819,0 -1.353341,0.1254 -1.919261,0.37621 -0.55949,0.24438 -1.035539,0.60467 -1.427821,1.08055 -0.38585,0.47589 -0.681493,1.06092 -0.887283,1.75545 -0.20578,0.6881 -0.309025,1.47909 -0.309025,2.37298 v 3.28972 c 0,0.89389 0.103245,1.68775 0.309025,2.38229 0.21222,0.68808 0.514125,1.27025 0.906404,1.74614 0.392279,0.46947 0.868331,0.82637 1.427819,1.07074 0.565912,0.24437 1.20596,0.36638 1.91978,0.36638 0.720251,0 1.359783,-0.12201 1.919263,-0.36638 0.55948,-0.24437 1.032142,-0.60129 1.418,-1.07074 0.38585,-0.47588 0.682011,-1.05805 0.887802,-1.74614 0.20579,-0.69454 0.308509,-1.4884 0.308509,-2.38229 v -3.28972 c 0,-0.89389 -0.102719,-1.68488 -0.308509,-2.37298 -0.205791,-0.69453 -0.504823,-1.27956 -0.897102,-1.75545 -0.38586,-0.47588 -0.861901,-0.83618 -1.427821,-1.08055 -0.55948,-0.25081 -1.199518,-0.37622 -1.91978,-0.37621 z m 11.845793,0 c -0.71383,0 -1.35387,0.1254 -1.91978,0.37621 -0.55949,0.24438 -1.03503,0.60467 -1.42731,1.08055 -0.38586,0.47589 -0.68201,1.06092 -0.8878,1.75545 -0.20579,0.6881 -0.30851,1.47909 -0.30851,2.37298 v 3.28972 c 0,0.89389 0.10272,1.68775 0.30851,2.38229 0.21222,0.68808 0.51464,1.27025 0.90692,1.74614 0.39229,0.46947 0.86833,0.82637 1.42782,1.07074 0.56591,0.24437 1.20545,0.36638 1.91927,0.36638 0.72025,0 1.36029,-0.12201 1.91978,-0.36638 0.55948,-0.24437 1.03215,-0.60129 1.418,-1.07074 0.38585,-0.47588 0.68149,-1.05805 0.88728,-1.74614 0.20578,-0.69454 0.30903,-1.4884 0.30903,-2.38229 v -3.28972 c 0,-0.89389 -0.10325,-1.68488 -0.30903,-2.37298 -0.20579,-0.69453 -0.50481,-1.27956 -0.8971,-1.75545 -0.38585,-0.47588 -0.86138,-0.83618 -1.4273,-1.08055 -0.55949,-0.25081 -1.19953,-0.37622 -1.91978,-0.37621 z m 11.84579,0 c -0.71383,0 -1.35386,0.1254 -1.91978,0.37621 -0.55948,0.24438 -1.03553,0.60467 -1.42782,1.08055 -0.38584,0.47589 -0.6815,1.06092 -0.88729,1.75545 -0.20579,0.6881 -0.3085,1.47909 -0.3085,2.37298 v 3.28972 c 0,0.89389 0.10271,1.68775 0.3085,2.38229 0.21222,0.68808 0.51464,1.27025 0.90693,1.74614 0.39228,0.46947 0.86782,0.82637 1.4273,1.07074 0.56592,0.24437 1.20595,0.36638 1.91978,0.36638 0.72025,0 1.36029,-0.12201 1.91978,-0.36638 0.55948,-0.24437 1.03214,-0.60129 1.418,-1.07074 0.38585,-0.47588 0.68149,-1.05805 0.88728,-1.74614 0.20579,-0.69454 0.30851,-1.4884 0.30851,-2.38229 v -3.28972 c 0,-0.89389 -0.10272,-1.68488 -0.30851,-2.37298 -0.20579,-0.69453 -0.50482,-1.27956 -0.8971,-1.75545 -0.38585,-0.47588 -0.86191,-0.83618 -1.42782,-1.08055 -0.55949,-0.25081 -1.199,-0.37622 -1.91926,-0.37621 z m 11.84527,0 c -0.71382,0 -1.35334,0.1254 -1.91926,0.37621 -0.55948,0.24438 -1.03554,0.60467 -1.42782,1.08055 -0.38585,0.47589 -0.6815,1.06092 -0.88729,1.75545 -0.20579,0.6881 -0.30902,1.47909 -0.30902,2.37298 v 3.28972 c 0,0.89389 0.10323,1.68775 0.30902,2.38229 0.21222,0.68808 0.51414,1.27025 0.90641,1.74614 0.39228,0.46947 0.86834,0.82637 1.42782,1.07074 0.56592,0.24437 1.20596,0.36638 1.91978,0.36638 0.72026,0 1.35978,-0.12201 1.91926,-0.36638 0.55948,-0.24437 1.03215,-0.60129 1.418,-1.07074 0.38585,-0.47588 0.68201,-1.05805 0.8878,-1.74614 0.20579,-0.69454 0.30851,-1.4884 0.30851,-2.38229 v -3.28972 c 0,-0.89389 -0.10272,-1.68488 -0.30851,-2.37298 -0.20579,-0.69453 -0.50482,-1.27956 -0.8971,-1.75545 -0.38586,-0.47588 -0.8619,-0.83618 -1.42782,-1.08055 -0.55948,-0.25081 -1.19952,-0.37622 -1.91978,-0.37621 z m 11.84579,0 c -0.71382,0 -1.35387,0.1254 -1.91978,0.37621 -0.55949,0.24438 -1.03504,0.60467 -1.4273,1.08055 -0.38585,0.47589 -0.68201,1.06092 -0.88781,1.75545 -0.20579,0.6881 -0.3085,1.47909 -0.3085,2.37298 v 3.28972 c 0,0.89389 0.10271,1.68775 0.3085,2.38229 0.21222,0.68808 0.51465,1.27025 0.90693,1.74614 0.39227,0.46947 0.86834,0.82637 1.42782,1.07074 0.56592,0.24437 1.20544,0.36638 1.91926,0.36638 0.72026,0 1.3603,-0.12201 1.91978,-0.36638 0.55949,-0.24437 1.03215,-0.60129 1.418,-1.07074 0.38585,-0.47588 0.68149,-1.05805 0.88728,-1.74614 0.20579,-0.69454 0.30903,-1.4884 0.30903,-2.38229 v -3.28972 c 0,-0.89389 -0.10324,-1.68488 -0.30903,-2.37298 -0.20579,-0.69453 -0.50482,-1.27956 -0.8971,-1.75545 -0.38585,-0.47588 -0.86138,-0.83618 -1.4273,-1.08055 -0.55948,-0.25081 -1.19953,-0.37622 -1.91978,-0.37621 z m 11.84579,0 c -0.71382,0 -1.35386,0.1254 -1.91978,0.37621 -0.55948,0.24438 -1.03554,0.60467 -1.42782,1.08055 -0.38585,0.47589 -0.6815,1.06092 -0.88729,1.75545 -0.20579,0.6881 -0.3085,1.47909 -0.3085,2.37298 v 3.28972 c 0,0.89389 0.10271,1.68775 0.3085,2.38229 0.21222,0.68808 0.51464,1.27025 0.90692,1.74614 0.39228,0.46947 0.86783,0.82637 1.42731,1.07074 0.56592,0.24437 1.20596,0.36638 1.91978,0.36638 0.72026,0 1.3603,-0.12201 1.91978,-0.36638 0.55949,-0.24437 1.03215,-0.60129 1.418,-1.07074 0.38585,-0.47588 0.68149,-1.05805 0.88728,-1.74614 0.20578,-0.69454 0.30851,-1.4884 0.30851,-2.38229 v -3.28972 c 0,-0.89389 -0.10273,-1.68488 -0.30851,-2.37298 -0.20579,-0.69453 -0.50481,-1.27956 -0.8971,-1.75545 -0.38585,-0.47588 -0.86191,-0.83618 -1.42782,-1.08055 -0.55948,-0.25081 -1.199,-0.37622 -1.91926,-0.37621 z m -82.919491,1.46658 c 0.829579,0 1.462852,0.24403 1.900142,0.73277 0.44373,0.48232 0.717214,1.18987 0.820105,2.12235 l -5.469435,4.19613 v -3.32796 c 0,-1.21544 0.221864,-2.13809 0.665594,-2.76831 0.450149,-0.63665 1.144693,-0.95499 2.083594,-0.95498 z m 11.845787,0 c 0.829572,0 1.462844,0.24403 1.900142,0.73277 0.44373,0.48232 0.717217,1.18987 0.820105,2.12235 l -5.469432,4.19613 v -3.32796 c 0,-1.21544 0.221861,-2.13809 0.665591,-2.76831 0.45016,-0.63665 1.144686,-0.95499 2.083594,-0.95498 z m 11.845271,0 c 0.82958,0 1.463371,0.24403 1.900661,0.73277 0.44373,0.48232 0.716698,1.18987 0.819587,2.12235 l -5.469433,4.19613 v -3.32796 c 0,-1.21544 0.221861,-2.13809 0.665591,-2.76831 0.450163,-0.63665 1.144696,-0.95499 2.083594,-0.95498 z m 11.845793,0 c 0.82957,0 1.46284,0.24403 1.90014,0.73277 0.44373,0.48232 0.71721,1.18987 0.82011,2.12235 l -5.46944,4.19613 v -3.32796 c 0,-1.21544 0.22186,-2.13809 0.66559,-2.76831 0.45016,-0.63665 1.1447,-0.95499 2.0836,-0.95498 z m 11.84579,0 c 0.82958,0 1.46284,0.24403 1.90014,0.73277 0.44373,0.48232 0.71722,1.18987 0.8201,2.12235 l -5.46943,4.19613 v -3.32796 c 0,-1.21544 0.22186,-2.13809 0.66559,-2.76831 0.45016,-0.63665 1.1447,-0.95499 2.0836,-0.95498 z m 11.84527,0 c 0.82958,0 1.46336,0.24403 1.90066,0.73277 0.44372,0.48232 0.7167,1.18987 0.81959,2.12235 l -5.46944,4.19613 v -3.32796 c 0,-1.21544 0.22188,-2.13809 0.66559,-2.76831 0.45017,-0.63665 1.1447,-0.95499 2.0836,-0.95498 z m 11.84579,0 c 0.82958,0 1.46284,0.24403 1.90014,0.73277 0.44372,0.48232 0.71721,1.18987 0.82011,2.12235 l -5.46944,4.19613 v -3.32796 c 0,-1.21544 0.22186,-2.13809 0.66559,-2.76831 0.45016,-0.63665 1.14469,-0.95499 2.0836,-0.95498 z m 11.84579,0 c 0.82958,0 1.46285,0.24403 1.90014,0.73277 0.44373,0.48232 0.71721,1.18987 0.8201,2.12235 l -5.46943,4.19613 v -3.32796 c 0,-1.21544 0.22186,-2.13809 0.66559,-2.76831 0.45016,-0.63665 1.1447,-0.95499 2.0836,-0.95498 z m -80.160488,4.56251 v 3.22203 c 0,1.20898 -0.221861,2.13502 -0.665591,2.77812 -0.43729,0.64309 -1.128953,0.96428 -2.074294,0.96428 -0.803859,0 -1.430861,-0.23778 -1.88102,-0.71365 -0.45016,-0.47589 -0.729896,-1.16703 -0.839227,-2.07377 z m 11.845271,0 v 3.22203 c 0,1.20898 -0.221861,2.13502 -0.665591,2.77812 -0.4373,0.64309 -1.128445,0.96428 -2.073775,0.96428 -0.803859,0 -1.430861,-0.23778 -1.881023,-0.71365 -0.45016,-0.47589 -0.729904,-1.16703 -0.839224,-2.07377 z m 11.84579,0 v 3.22203 c 0,1.20898 -0.221863,2.13502 -0.665593,2.77812 -0.437291,0.64309 -1.128446,0.96428 -2.073775,0.96428 -0.80385,0 -1.430862,-0.23778 -1.881021,-0.71365 -0.45016,-0.47589 -0.729906,-1.16703 -0.839227,-2.07377 z m 11.845787,0 v 3.22203 c 0,1.20898 -0.22186,2.13502 -0.66559,2.77812 -0.4373,0.64309 -1.12896,0.96428 -2.07429,0.96428 -0.80386,0 -1.43087,-0.23778 -1.88103,-0.71365 -0.45015,-0.47589 -0.72989,-1.16703 -0.83922,-2.07377 z m 11.84527,0 v 3.22203 c 0,1.20898 -0.22186,2.13502 -0.66559,2.77812 -0.4373,0.64309 -1.12844,0.96428 -2.07377,0.96428 -0.80386,0 -1.43086,-0.23778 -1.88102,-0.71365 -0.45016,-0.47589 -0.72991,-1.16703 -0.83923,-2.07377 z m 11.84579,0 v 3.22203 c 0,1.20898 -0.22186,2.13502 -0.66559,2.77812 -0.43729,0.64309 -1.12843,0.96428 -2.07377,0.96428 -0.80386,0 -1.43087,-0.23778 -1.88102,-0.71365 -0.45016,-0.47589 -0.72991,-1.16703 -0.83923,-2.07377 z m 11.84579,0 v 3.22203 c 0,1.20898 -0.22186,2.13502 -0.66559,2.77812 -0.4373,0.64309 -1.12895,0.96428 -2.07429,0.96428 -0.80386,0 -1.43086,-0.23778 -1.88102,-0.71365 -0.45016,-0.47589 -0.72991,-1.16703 -0.83923,-2.07377 z m 11.84527,0 v 3.22203 c 0,1.20898 -0.22186,2.13502 -0.66559,2.77812 -0.43729,0.64309 -1.12843,0.96428 -2.07377,0.96428 -0.80386,0 -1.43086,-0.23778 -1.88103,-0.71365 -0.45014,-0.47589 -0.7299,-1.16703 -0.83922,-2.07377 z"
       style="font-style:normal;font-variant:normal;font-weight:normal;font-stretch:normal;font-size:19.75555611px;line-height:1.25;font-family:'Roboto Mono';-inkscape-font-specification:'Roboto Mono';letter-spacing:0px;word-spacing:0px;fill:#ef9a9a;fill-opacity:1;stroke:none;stroke-width:0.26458332" />
  </g>
</svg>
